<svg xmlns="http://www.w3.org/2000/svg" width="23" height="23" viewBox="0 0 23 23"><defs><style>.a{fill:#aaa;}</style></defs><path class="a" d="M21.746,1.254A4.255,4.255,0,0,0,18.717,0H4.283A4.288,4.288,0,0,0,0,4.283V18.718A4.287,4.287,0,0,0,4.283,23H18.717A4.287,4.287,0,0,0,23,18.717V4.283A4.255,4.255,0,0,0,21.746,1.254Zm-.093,17.463a2.938,2.938,0,0,1-2.935,2.935H4.283a2.938,2.938,0,0,1-2.935-2.935V4.283A2.938,2.938,0,0,1,4.283,1.348H18.717a2.935,2.935,0,0,1,2.935,2.935Z"/><g transform="translate(6.537 3.752)"><path class="a" d="M171.167,102.758a.788.788,0,0,0-1.114,0l-2.831,2.831v-8.4a.788.788,0,0,0-1.575,0v8.4l-2.831-2.831a.788.788,0,0,0-1.114,1.114l4.175,4.175a.787.787,0,0,0,1.114,0l4.175-4.175A.788.788,0,0,0,171.167,102.758Z" transform="translate(-161.471 -96.4)"/></g><g transform="translate(3.12 17.14)"><path class="a" d="M112.374,385.6H97.19a.788.788,0,1,0,0,1.575h15.184a.788.788,0,1,0,0-1.575Z" transform="translate(-96.402 -385.601)"/></g></svg>