<?xml version="1.0" encoding="utf-8"?>
<!-- Generator: Adobe Illustrator 24.1.3, SVG Export Plug-In . SVG Version: 6.00 Build 0)  -->
<svg version="1.1" id="Layer_1" xmlns="http://www.w3.org/2000/svg" xmlns:xlink="http://www.w3.org/1999/xlink" x="0px" y="0px"
	 viewBox="0 0 500 500" style="enable-background:new 0 0 500 500;" xml:space="preserve">
<style type="text/css">
	.st0{fill:#B22FB2;}
	.st1{fill:#4A0B4C;}
	.st2{fill:#751775;}
	.st3{fill:#942290;}
</style>
<g>
	<path class="st0" d="M361.8,237l-0.01,0.04c13.3-3.88,26.94-6.45,40.73-7.68c0.25-0.06,0.4-0.06,0.4-0.06l45.97-4.87l9.08-19.88
		c2.58-7.9,0.64-16.57-5.07-22.61c-2.78-3.11-6.07-5.72-9.73-7.72c-3.66-8.03-9.74-14.72-17.4-19.11
		c-5.12-2.72-10.83-4.15-16.64-4.14c-2.44-0.02-4.87,0.24-7.25,0.79c-3.01-5.24-8.5-8.56-14.54-8.79
		c-10.74,0-20.51,10.72-20.6,10.83c-11.06,1.6-21.39,6.46-29.66,13.96c-3.62,3.21-6.78,6.92-9.35,11.02
		c-3.16,4.43-6.82,8.49-10.88,12.1C323.22,193.32,355.39,207.07,361.8,237z M420.43,176.96c3.19,0,5.76,2.58,5.76,5.76
		s-2.58,5.76-5.76,5.76c-3.19,0-5.76-2.58-5.76-5.76S417.25,176.96,420.43,176.96z"/>
	<path class="st1" d="M361.31,247.08c-0.05-2.67-0.33-5.34-0.82-7.97c-3.36,1.02-6.77,2.16-10.2,3.44
		c-26,9.69-58.07,29.52-63.3,68.85c9.28,0.99,18.63,1.07,27.92,0.22C332.75,305.46,361.99,285.18,361.31,247.08z"/>
	<path class="st2" d="M349.79,241.35c3.48-1.31,6.95-2.46,10.36-3.49c-6.59-31-41.89-44.45-44.83-45.51
		c-14.27,11.51-31.85,18.18-50.17,19.02l1.73,95.78c6.09,2.02,12.37,3.41,18.75,4.13C290.94,271.28,323.44,251.18,349.79,241.35z"/>
	<path class="st1" d="M317.27,312.15l127.76,44.81c16.2,0.93,17.44-11.63,17.46-15.22l-117.76-48.09
		C337.04,301.75,327.67,308.06,317.27,312.15z"/>
	<path class="st2" d="M463.03,297.1c-17.58-6.49-34.57-14.51-50.75-23.97c0,0-20.24-12.79-21.08-27.63
		c-0.9-5.51,1.55-11.02,6.23-14.05c-12.08,1.38-24.02,3.79-35.68,7.2c0.52,2.74,0.81,5.52,0.86,8.31
		c0.51,16.85-5.61,33.22-17.04,45.61l118.22,48.27c0.51,0.16,1.01,0.37,1.49,0.61l0.21,0.08c4.58,2.32,12.13,8.55,19.95,9.74
		c10.05,1.54,14.47-6.25,9.31-23.31C489.59,310.92,485.47,304.42,463.03,297.1z"/>
	<path class="st3" d="M255.87,213.03c-3.48,0.26-6.97,0.32-10.45,0.19c-4.47-0.15-8.92-0.62-13.32-1.38
		c-3.46-0.58-6.87-1.45-10.19-2.61c-0.48-0.17-0.9-0.34-1.29-0.5l-3.29-1.36c-8.27-3.44-15.54-6.46-25.32-9.82
		c-2.58-0.98-5.08-1.81-7.52-2.5c-1.45-0.46-2.94-0.93-4.51-1.42c-2.99-0.8-6.05-1.31-9.12-1.68c-19.49-4.83-49.56-7.22-86.48,6.37
		c-47.14,17.34-62.15,9.37-66.3,5.42c-1.03-0.96-2.51-1.25-3.82-0.75c-1.92,0.71-2.9,2.85-2.19,4.77c0.2,0.54,0.52,1.02,0.93,1.41
		c3.24,2.91,7.18,4.94,11.44,5.87c4.5,1.08,9.12,1.55,13.74,1.41c16.75-1.07,33.23-4.84,48.78-11.16
		c21.1-7.77,39.95-9.93,55.72-9.49c-3.99,1.74-7.78,3.95-11.27,6.66c-0.24,0.18-0.47,0.37-0.71,0.55
		c-8.56,6.57-15.31,15.21-19.61,25.1c-1.12,2.38-2.04,4.85-2.75,7.39c-0.28,0.94-0.4,1.47-0.4,1.47c-0.87,3.38-1.44,6.78-2.04,10.35
		c-0.7,4.17-1.42,8.47-2.73,13.39c-2.86,10.75-7.17,17.82-12.87,21.02c-4.41,2.28-9.57,2.63-14.25,0.97
		c-9.99-2.77-20.69,0.28-27.72,7.9l-0.17,0.2c-17.24,22.29-35.1,20.04-35.82,19.93l-0.37-0.06l-0.4,0.01
		c-2.43-0.02-4.73,1.08-6.23,2.99c-2.31,4.07-2.89,8.89-1.62,13.39l0.08,0.37l0.14,0.35c6.98,16.86,14.93,18.9,23.84,19.7
		c0.62,0.05,1.23,0.07,1.85,0.06c11.83-1.33,23.19-5.36,33.21-11.78c3.62-2.07,7.9-2.68,11.95-1.7l0.43,0.08
		c52.58,7.7,81.5-7.12,99.35-19.08c10.55-6.8,19.39-15.95,25.81-26.74c6.96,0.1,13.91,0.72,20.78,1.87
		c3.41,0.41,6.78,1.16,10.04,2.22c4.18,1.36,8.13,3.35,11.71,5.9c0.44,0.31,0.89,0.63,1.26,0.86c3.76,2.45,7.81,4.4,12.07,5.82
		l6.04,2.06l-1.7-94.4L255.87,213.03z M249.04,291.7c-0.33-0.21-0.64-0.43-0.95-0.65c-4.31-3.06-9.06-5.46-14.08-7.09
		c-3.82-1.25-7.76-2.12-11.76-2.61c-8.58-1.01-17.21-1.46-25.85-1.34l-2.13,0.52l-0.91,1.99c-5.77,10.43-14.11,19.2-24.24,25.48
		c-23.66,15.59-53.4,23-92.42,17.33c-6.57-1.54-13.49-0.37-19.19,3.23c-8.72,5.53-18.62,8.95-28.9,9.98
		c-6.23-0.52-10.78-0.95-16.19-13.8c-0.34-1.66-0.4-3.36-0.18-5.03c5.19,0.36,24.78-0.02,42.9-23.28c4.72-4.96,11.79-6.94,18.4-5.14
		c6.99,2.39,14.66,1.75,21.16-1.75c7.86-4.42,13.62-13.34,17.13-26.52c1.42-5.32,2.21-10.05,2.9-14.22
		c0.68-5.78,2.18-11.43,4.44-16.79c0,0,0.09-0.2,0.26-0.58l0.04-0.08c1.62-3.14,3.53-6.13,5.7-8.92l0.03,0l0.09-0.17
		c5.04-6.59,11.2-12.22,18.21-16.65l0.44-0.34c9.71-4.61,23.5-6.72,42.41-0.25c0.28,0.12,0.58,0.22,0.85,0.34
		c1,0.34,1.86,0.65,2.8,0.98c1.31,0.64,2.02,1.05,2.08,1.08l0.15-0.29c8.02,2.86,14.51,5.53,21.69,8.52l3.33,1.38
		c0.53,0.21,1.09,0.44,1.65,0.63c3.8,1.33,7.7,2.34,11.67,3.01c4.81,0.84,9.67,1.34,14.55,1.51c2.25,0.08,4.5,0.09,6.71,0.03
		l1.29,71.84C251.71,293.35,250.34,292.57,249.04,291.7z"/>
</g>
</svg>
