<svg xmlns="http://www.w3.org/2000/svg" width="18.293" height="20.405" viewBox="0 0 18.293 20.405"><defs><style>.a{fill:#404040;}</style></defs><path class="a" d="M7.493,19.608a.8.8,0,0,1-.8.8H3.188A3.192,3.192,0,0,1,0,17.217V3.188A3.192,3.192,0,0,1,3.188,0h9.8a3.192,3.192,0,0,1,3.188,3.188V10.8a.8.8,0,0,1-1.594,0V3.188a1.6,1.6,0,0,0-1.594-1.594h-9.8A1.6,1.6,0,0,0,1.594,3.188V17.217a1.6,1.6,0,0,0,1.594,1.594H6.7a.8.8,0,0,1,.8.8Zm4.7-14.826H3.981a.8.8,0,1,0,0,1.594h8.21a.8.8,0,0,0,0-1.594Zm.8,3.985a.8.8,0,0,0-.8-.8H3.981a.8.8,0,0,0,0,1.594h8.21A.8.8,0,0,0,12.988,8.768ZM3.981,11.159a.8.8,0,0,0,0,1.594H8.17a.8.8,0,0,0,0-1.594ZM18.148,17c-.028.04-.124.176-.184.251A11.217,11.217,0,0,1,16.2,19.064a5.466,5.466,0,0,1-3.41,1.341,5.466,5.466,0,0,1-3.41-1.341,11.213,11.213,0,0,1-1.761-1.816c-.06-.075-.156-.211-.184-.251a.8.8,0,0,1,0-.916c.028-.04.124-.176.184-.251a11.214,11.214,0,0,1,1.761-1.816,5.466,5.466,0,0,1,3.41-1.341,5.466,5.466,0,0,1,3.41,1.341,11.213,11.213,0,0,1,1.761,1.816c.06.075.156.211.184.251A.8.8,0,0,1,18.148,17Zm-1.663-.458c-1.267-1.508-2.508-2.272-3.692-2.272s-2.425.764-3.692,2.272c1.267,1.508,2.508,2.272,3.692,2.272S15.218,18.047,16.485,16.539Zm-3.652-1.514a1.514,1.514,0,1,0,1.514,1.514A1.514,1.514,0,0,0,12.833,15.025Zm0,0"/></svg>