<svg xmlns="http://www.w3.org/2000/svg" width="13.933" height="16.719" viewBox="0 0 13.933 16.719"><defs><style>.a{fill:#bbb;}</style></defs><g transform="translate(-42.667)"><g transform="translate(42.667)"><g transform="translate(0)"><path class="a" d="M54.51,5.573v-.7a4.877,4.877,0,1,0-9.753,0v.7a2.092,2.092,0,0,0-2.09,2.09V14.63a2.092,2.092,0,0,0,2.09,2.09H54.51a2.093,2.093,0,0,0,2.09-2.09V7.663A2.093,2.093,0,0,0,54.51,5.573Zm-8.36-.7a3.483,3.483,0,1,1,6.966,0v.7H46.15Zm9.056,9.753a.7.7,0,0,1-.7.7H44.757a.7.7,0,0,1-.7-.7V7.663a.7.7,0,0,1,.7-.7H54.51a.7.7,0,0,1,.7.7Z" transform="translate(-42.667)"/></g></g><g transform="translate(47.544 8.011)"><g transform="translate(0)"><path class="a" d="M194.09,245.333a2.085,2.085,0,0,0-.7,4.052v1.173a.7.7,0,1,0,1.393,0v-1.173a2.085,2.085,0,0,0-.7-4.052Zm0,2.787a.7.7,0,1,1,.7-.7A.7.7,0,0,1,194.09,248.12Z" transform="translate(-192 -245.333)"/></g></g></g></svg>