<?xml version="1.0" encoding="utf-8"?>
<!-- Generator: Adobe Illustrator 24.1.3, SVG Export Plug-In . SVG Version: 6.00 Build 0)  -->
<svg version="1.1" id="Layer_1" xmlns="http://www.w3.org/2000/svg" xmlns:xlink="http://www.w3.org/1999/xlink" x="0px" y="0px"
	 viewBox="0 0 1130.7 162.6" style="enable-background:new 0 0 1130.7 162.6;" xml:space="preserve">
<style type="text/css">
	.st0{fill:#FFFFFF;}
</style>
<g>
	<path class="st0" d="M273.8,73.7L273.8,73.7c9.6-2.9,19.7-4.7,29.7-5.6c0.2,0,0.2,0,0.2,0l33.3-3.6l6.5-14.5
		c1.8-5.8,0.4-12.1-3.6-16.5c-2-2.2-4.5-4.2-7.1-5.6c-2.7-5.8-7.1-10.7-12.7-13.8c-3.8-2-7.8-3.1-12.1-3.1c-1.8,0-3.6,0.2-5.4,0.7
		c-2.2-3.8-6.3-6.3-10.5-6.5c-7.8,0-15,7.8-15,7.8c-8,1.1-15.6,4.7-21.7,10c-2.7,2.2-4.9,5.1-6.7,8c-2.2,3.1-4.9,6.3-7.8,8.7
		C245.9,42,269.1,51.8,273.8,73.7z M316.5,29.9c2.2,0,4.2,1.8,4.2,4.2s-1.8,4.2-4.2,4.2c-2.5,0-4.2-1.8-4.2-4.2
		S314.2,29.9,316.5,29.9z"/>
	<path class="st0" d="M273.4,80.8c0-2-0.2-3.8-0.7-5.8c-2.5,0.7-4.9,1.6-7.4,2.5c-19,6.9-42.2,21.4-46,50c6.7,0.7,13.6,0.9,20.3,0.2
		C252.8,123.3,274,108.5,273.4,80.8z"/>
	<path class="st0" d="M265.1,76.8c2.5-0.9,5.1-1.8,7.6-2.5C268,51.8,242.3,42,240.1,41.3c-10.3,8.5-23.2,13.2-36.4,13.8l1.3,69.7
		c4.5,1.6,8.9,2.5,13.6,2.9C222.4,98.5,245.9,84,265.1,76.8z"/>
	<path class="st0" d="M241.4,128.2l92.9,32.6c11.8,0.7,12.7-8.5,12.7-11.2l-85.5-34.8C255.9,120.6,249,125.3,241.4,128.2z"/>
	<path class="st0" d="M347.3,117.2c-12.7-4.7-25-10.5-36.8-17.4c0,0-14.7-9.4-15.4-20.1c-0.7-4,1.1-8,4.5-10.3
		c-8.7,0.9-17.4,2.7-25.9,5.1c0.4,2,0.7,4,0.7,6c0.4,12.3-4,24.1-12.3,33.1l86,35.1c0.4,0,0.7,0.2,1.1,0.4h0.2
		c3.4,1.8,8.7,6.3,14.5,7.1c7.4,1.1,10.5-4.5,6.7-17C366.7,127.3,363.6,122.6,347.3,117.2z"/>
	<path class="st0" d="M197,56.3c-2.5,0.2-5.1,0.2-7.6,0.2c-3.1-0.2-6.5-0.4-9.6-0.9c-2.5-0.4-4.9-1.1-7.4-2
		c-0.4-0.2-0.7-0.2-0.9-0.4l-2.5-0.9c-6-2.5-11.4-4.7-18.3-7.1c-1.8-0.7-3.8-1.3-5.6-1.8c-1.1-0.2-2.2-0.7-3.3-1.1
		c-2.2-0.7-4.5-0.9-6.7-1.3c-14.1-3.6-36-5.4-62.8,4.7C38,58.1,27,52.3,24.1,49.4c-0.7-0.7-1.8-0.9-2.7-0.4c-1.3,0.4-2,2-1.6,3.6
		c0.2,0.4,0.4,0.7,0.7,1.1c2.5,2,5.1,3.6,8.3,4.2c3.3,0.9,6.7,1.1,10,1.1c12.1-0.9,24.1-3.6,35.5-8c15.4-5.6,29-7.1,40.4-6.9
		c-2.9,1.3-5.6,2.9-8.3,4.9c-0.2,0.2-0.4,0.2-0.4,0.4C99.8,54,94.9,60.3,91.8,67.7c-0.9,1.8-1.6,3.6-2,5.4c-0.2,0.7-0.2,1.1-0.2,1.1
		c-0.7,2.5-1.1,4.9-1.6,7.6c-0.4,3.1-1.1,6.3-2,9.8c-2,7.8-5.1,13-9.4,15.2c-3.1,1.6-6.9,2-10.3,0.7c-7.4-2-15,0.2-20.1,5.8
		l-0.2,0.2C33.5,129.8,20.5,128,20.1,128h-0.2h-0.4c-1.8,0-3.3,0.9-4.5,2.2c-1.8,2.9-2,6.5-1.1,9.8v0.2v0.2
		c5.1,12.3,10.9,13.6,17.4,14.3c0.4,0,0.9,0,1.3,0c8.7-0.9,16.7-3.8,24.1-8.5c2.7-1.6,5.8-2,8.7-1.1h0.2
		c38.2,5.6,59.2-5.1,72.1-13.8c7.6-4.9,14.1-11.6,18.8-19.4c5.1,0,10,0.4,15.2,1.3c2.5,0.2,4.9,0.9,7.4,1.6c3.1,0.9,5.8,2.5,8.5,4.2
		c0.2,0.2,0.7,0.4,0.9,0.7c2.7,1.8,5.6,3.1,8.7,4.2l4.5,1.6l-1.3-68.6L197,56.3z M191.8,113.5c-0.2-0.2-0.4-0.2-0.7-0.4
		c-3.1-2.2-6.5-4-10.3-5.1c-2.7-0.9-5.6-1.6-8.5-2c-6.3-0.7-12.5-1.1-18.8-0.9l-1.6,0.4l-0.7,1.3c-4.2,7.6-10.3,14.1-17.6,18.5
		c-17.2,11.4-38.9,16.7-67.2,12.5c-4.7-1.1-9.8-0.2-13.8,2.2c-6.3,4-13.6,6.5-21,7.4c-4.5-0.4-7.8-0.7-11.8-10.1
		c-0.2-1.1-0.2-2.5-0.2-3.6c3.8,0.2,18.1,0,31.3-17c3.3-3.6,8.5-5.1,13.4-3.8c5.1,1.8,10.7,1.3,15.4-1.3c5.8-3.1,9.8-9.6,12.5-19.2
		c1.1-3.8,1.6-7.4,2-10.3c0.4-4.2,1.6-8.3,3.1-12.3c0,0,0-0.2,0.2-0.4l0,0c1.1-2.2,2.7-4.5,4-6.5l0,0v-0.2c3.6-4.7,8-8.9,13.2-12.1
		l0.2-0.2c7.1-3.3,17.2-4.9,30.8-0.2c0.2,0,0.4,0.2,0.7,0.2c0.7,0.2,1.3,0.4,2,0.7c0.9,0.4,1.6,0.7,1.6,0.9l0.2-0.2
		c5.8,2,10.5,4,15.9,6.3l2.5,0.9c0.4,0.2,0.7,0.2,1.1,0.4c2.7,0.9,5.6,1.8,8.5,2.2c3.6,0.7,7.1,0.9,10.5,1.1c1.6,0,3.3,0,4.9,0
		l0.9,52.3C193.9,114.6,193,113.9,191.8,113.5z"/>
	<polygon class="st0" points="458.3,104.5 454,104.5 454,137.3 470.1,137.3 470.1,134 458.3,134 	"/>
	<path class="st0" d="M495.6,118.1c-0.7-2-2-3.8-3.6-4.9c-1.8-1.3-4-2-6.3-1.8c-2,0-4.2,0.4-6,1.6c-1.8,1.1-3.1,2.7-4.2,4.5
		c-1.1,2.2-1.6,4.5-1.6,6.9c0,2.5,0.4,4.7,1.6,6.9c0.9,1.8,2.5,3.4,4.2,4.5c1.8,1.1,4,1.6,6,1.6c2.2,0,4.5-0.7,6.3-1.8
		c1.8-1.1,2.9-2.9,3.6-4.9v6.5h4.2v-25.5h-4.2V118.1z M494.7,129.5c-0.7,1.3-1.8,2.5-3.1,3.4c-1.3,0.9-2.9,1.1-4.5,1.1
		c-2.5,0-4.7-0.9-6.3-2.5c-3.1-4-3.1-9.6,0-13.6c1.6-1.8,4-2.7,6.3-2.5c1.6,0,3.1,0.4,4.5,1.1c1.3,0.9,2.5,2,3.1,3.3
		c0.7,1.6,1.1,3.1,1.1,4.9C495.8,126.2,495.4,128,494.7,129.5z"/>
	<path class="st0" d="M521,111.2c-2,0-4,0.4-5.8,1.8c-1.8,1.1-2.9,2.9-3.6,4.7v-6h-4.2v25.7h4.2v-13.6c-0.2-2.5,0.7-4.7,2-6.7
		c1.3-1.6,3.6-2.5,5.6-2.2c2,0,4,0.7,5.4,2c1.3,1.6,2,3.8,2,5.8v14.5h4.2v-14.7c0.2-3.1-0.9-6-2.7-8.3
		C526.4,112.1,523.7,111.2,521,111.2z"/>
	<path class="st0" d="M558.8,118.1c-0.7-2-2-3.8-3.6-4.9c-1.8-1.3-4-2-6.3-2c-2,0-4.2,0.4-6,1.6c-1.8,1.1-3.1,2.7-4.2,4.5
		c-1.1,2.2-1.6,4.5-1.6,6.9s0.4,4.7,1.6,6.9c0.9,1.8,2.5,3.3,4.2,4.5c1.8,1.1,4,1.6,6,1.6c2.2,0,4.5-0.7,6.3-1.8
		c1.8-1.1,2.9-2.9,3.6-4.9v6.9c0.2,2.2-0.7,4.5-2.2,6.3c-1.6,1.6-3.6,2.2-5.8,2.2c-2,0-3.8-0.4-5.4-1.3c-1.3-0.9-2.5-2.5-2.9-4h-4.2
		c0.4,2.7,2,5.1,4.2,6.7c2.5,1.8,5.4,2.7,8.5,2.5c2.2,0,4.2-0.4,6.3-1.6c1.8-1.1,3.1-2.5,4.2-4.2c1.1-2,1.6-4,1.6-6.3v-25.9h-4.2
		V118.1L558.8,118.1z M557.7,129.5c-0.7,1.3-1.8,2.5-3.1,3.4c-1.3,0.9-2.9,1.1-4.5,1.1c-2.5,0-4.7-0.9-6.3-2.5
		c-3.1-4-3.1-9.6,0-13.6c1.6-1.8,4-2.7,6.3-2.5c1.6,0,3.1,0.4,4.5,1.1c1.3,0.9,2.5,2,3.1,3.3c0.7,1.6,1.1,3.1,1.1,4.9
		C559,126.2,558.6,128,557.7,129.5z"/>
	<path class="st0" d="M589.4,125.3c0.2,2.5-0.7,4.7-2,6.7c-1.3,1.6-3.6,2.5-5.6,2.2c-2,0-4-0.7-5.4-2c-1.3-1.6-2-3.8-2-5.8v-14.7
		h-4.2v15c-0.2,2.9,0.9,6,2.7,8.3c1.8,2,4.5,2.9,7.1,2.9c2,0,4-0.7,5.8-1.8c1.8-1.1,2.9-2.9,3.4-4.7v6h4.2v-25.7h-4.2L589.4,125.3
		L589.4,125.3z"/>
	<path class="st0" d="M621.5,118.1c-0.7-2-2-3.8-3.6-4.9c-1.8-1.3-4-2-6.3-1.8c-2.2,0-4.2,0.4-6,1.6c-1.8,1.1-3.3,2.7-4.2,4.5
		c-1.1,2.2-1.6,4.5-1.6,6.9c0,2.5,0.4,4.7,1.6,6.9c0.9,1.8,2.5,3.4,4.2,4.5c1.8,1.1,4,1.6,6,1.6c2.2,0,4.5-0.7,6.3-1.8
		c1.8-1.1,2.9-2.9,3.6-4.9v6.5h4.2v-25.5h-4.2V118.1z M620.6,129.5c-0.7,1.3-1.8,2.5-3.1,3.4c-1.3,0.9-2.9,1.1-4.5,1.1
		c-2.5,0-4.7-0.9-6.3-2.5c-3.1-4-3.1-9.6,0-13.6c1.6-1.8,4-2.7,6.3-2.5c1.6,0,3.1,0.4,4.5,1.1c1.3,0.9,2.5,2,3.1,3.3
		c0.9,1.6,1.1,3.1,1.1,4.9C621.8,126.2,621.3,128,620.6,129.5z"/>
	<path class="st0" d="M653.9,118.1c-0.7-2-2-3.8-3.6-4.9c-1.8-1.3-4-2-6.3-2s-4.2,0.4-6,1.6c-1.8,1.1-3.4,2.7-4.2,4.5
		c-1.1,2.2-1.6,4.5-1.6,6.9s0.4,4.7,1.6,6.9c0.9,1.8,2.5,3.3,4.2,4.5c1.8,1.1,4,1.6,6,1.6c2.2,0,4.5-0.7,6.3-1.8
		c1.8-1.1,2.9-2.9,3.6-4.9v6.9c0.2,2.2-0.7,4.5-2.2,6.3c-1.6,1.6-3.6,2.2-5.8,2.2c-1.8,0-3.8-0.4-5.4-1.3c-1.3-0.9-2.5-2.5-2.9-4
		h-4.2c0.4,2.7,2,5.1,4.2,6.7c2.5,1.8,5.4,2.7,8.5,2.5c2.2,0,4.5-0.4,6.3-1.6c1.8-1.1,3.1-2.5,4.2-4.2c1.1-2,1.6-4,1.6-6.3v-25.9
		h-4.2V118.1L653.9,118.1z M652.8,129.5c-0.7,1.3-1.8,2.5-3.1,3.4c-1.3,0.9-2.9,1.1-4.5,1.1c-2.5,0-4.7-0.9-6.3-2.5
		c-3.1-4-3.1-9.6,0-13.6c1.6-1.8,4-2.7,6.3-2.5c1.6,0,3.1,0.4,4.5,1.1c1.3,0.9,2.5,2,3.1,3.3c0.9,1.6,1.1,3.1,1.1,4.9
		C653.9,126.2,653.7,128,652.8,129.5z"/>
	<path class="st0" d="M689.4,123.1c0-2-0.4-4-1.3-5.8c-0.9-1.8-2.5-3.3-4.2-4.2c-2-1.1-4.2-1.6-6.5-1.6s-4.5,0.4-6.5,1.6
		c-2,1.1-3.4,2.7-4.5,4.5c-2.2,4.5-2.2,9.6,0,13.8c1.1,2,2.5,3.6,4.5,4.5c2,1.1,4.2,1.6,6.5,1.6c2,0,4-0.4,5.8-1.1
		c3.3-1.3,5.6-4.5,6.3-8H685c-0.2,1.8-1.1,3.1-2.5,4.2c-1.6,1.1-3.4,1.6-5.1,1.6c-2.2,0-4.2-0.7-5.8-2.2c-1.8-1.8-2.5-4.2-2.5-6.5
		h20.3C689.4,124.6,689.4,123.9,689.4,123.1z M668.9,123.3c0-2.5,0.9-4.7,2.5-6.5c1.6-1.3,3.8-2.2,5.8-2.2c1.3,0,2.9,0.2,4,0.9
		s2.2,1.6,2.9,2.9l0,0c0.7,1.3,1.1,3.1,0.9,4.7h-16.1V123.3z"/>
	<path class="st0" d="M722.5,124.4c-1.6-0.7-3.1-1.1-4.7-1.3c-1.1-0.2-2.2-0.7-3.6-0.9c-0.9-0.2-1.6-0.7-2.2-1.3
		c-0.7-0.7-0.9-1.3-0.9-2.2c0-1.1,0.4-2.2,1.3-2.9c1.1-0.9,2.2-1.1,3.6-1.1c1.6,0,3.1,0.4,4.2,1.6c1.1,0.9,1.8,2.2,1.8,3.8h4
		c-0.2-2.2-1.3-4.5-3.1-6c-2-1.6-4.5-2.5-6.9-2.2c-2.2-0.2-4.7,0.7-6.5,2c-1.6,1.3-2.5,3.1-2.5,5.1c0,1.3,0.4,2.7,1.1,3.8
		c0.7,0.9,1.8,1.6,2.9,2c1.6,0.4,2.9,0.9,4.5,1.3c1.1,0.2,2.5,0.7,3.6,0.9c0.9,0.2,1.6,0.7,2.2,1.3c0.7,0.7,0.9,1.6,0.9,2.5
		c0,1.1-0.4,2.2-1.3,2.9c-0.9,0.9-2.2,1.1-3.4,1.1c-1.8,0-3.3-0.4-4.7-1.3c-1.1-0.9-2-2.2-2-3.8h-4c0.2,2.5,1.6,4.7,3.4,6
		c2.2,1.6,4.7,2.2,7.4,2.2c2.2,0,4.5-0.7,6.3-2c1.6-1.1,2.5-3.1,2.5-5.1c0-1.3-0.4-2.9-1.3-4C724.7,125.5,723.6,124.8,722.5,124.4z"
		/>
	<path class="st0" d="M753.5,113c-1.8-1.1-4-1.6-6-1.6c-2.2,0-4.5,0.7-6.3,1.8c-1.8,1.1-2.9,2.9-3.6,4.9v-6.5h-4.2v37.7h4.2v-18.5
		c0.7,2,1.8,3.8,3.6,4.9c1.8,1.3,4,2,6.3,1.8c2.2,0,4.2-0.4,6-1.6c1.8-1.1,3.3-2.7,4.2-4.5c1.1-2.2,1.6-4.5,1.6-6.9
		s-0.4-4.7-1.6-6.9C756.7,115.7,755.3,114.1,753.5,113z M752.6,131.3c-1.6,1.8-4,2.7-6.3,2.5c-1.6,0-3.1-0.4-4.5-1.1
		c-1.3-0.9-2.5-2-3.1-3.4c-0.7-1.6-1.1-3.1-1.1-4.9c0-1.8,0.2-3.4,1.1-4.9c0.7-1.3,1.8-2.5,3.1-3.3l0,0c1.3-0.9,2.9-1.1,4.5-1.1
		c2.5,0,4.7,0.9,6.3,2.5C755.8,121.7,755.8,127.3,752.6,131.3z"/>
	<path class="st0" d="M789.3,123.1c0-2-0.4-4-1.6-5.8c-1.1-1.8-2.5-3.3-4.2-4.2c-2-1.1-4.2-1.6-6.5-1.6s-4.5,0.4-6.5,1.6
		c-2,1.1-3.4,2.7-4.5,4.5c-2.2,4.5-2.2,9.6,0,13.8c1.1,2,2.5,3.6,4.5,4.5c2,1.1,4.2,1.6,6.5,1.6c2,0,4-0.4,5.8-1.1
		c3.3-1.3,5.6-4.5,6.3-8h-4.5c-0.2,1.6-1.1,3.1-2.5,4.2c-1.6,1.1-3.3,1.6-5.1,1.6c-2.2,0-4.2-0.7-5.8-2.2c-1.8-1.8-2.7-4.2-2.5-6.5
		H789C789,124.6,789.3,123.9,789.3,123.1z M768.5,123.3c0-2.5,0.9-4.7,2.5-6.5c1.6-1.3,3.8-2.2,5.8-2.2c1.3,0,2.9,0.2,4,0.9
		c1.1,0.7,2.2,1.6,2.9,2.9l0,0c0.7,1.6,1.1,3.1,0.9,4.7h-16.1V123.3z"/>
	<path class="st0" d="M812,132.4c-1.6,1.1-3.3,1.6-5.1,1.6c-1.3,0-2.9-0.2-4-1.1c-1.3-0.7-2.2-1.8-2.9-3.1c-1.6-3.4-1.6-7.1,0-10.5
		c0.7-1.3,1.8-2.5,2.9-3.1c2.9-1.6,6.5-1.3,9.2,0.4c1.3,1.1,2.2,2.7,2.5,4.2h4.5c-0.4-2.7-1.8-5.4-4-6.9c-2.2-1.8-5.1-2.7-8-2.7
		c-2.2,0-4.5,0.4-6.5,1.6c-2,1.1-3.3,2.7-4.5,4.5c-2.2,4.5-2.2,9.6,0,13.8c1.1,2,2.5,3.6,4.5,4.5c2,1.1,4.2,1.6,6.5,1.6
		c2.9,0,5.8-0.9,8-2.7c2.2-1.8,3.6-4.2,4-6.9h-4.5C814.3,129.8,813.4,131.3,812,132.4z"/>
	<rect x="825.4" y="111.7" class="st0" width="4.2" height="25.7"/>
	<path class="st0" d="M825.4,102.3L825.4,102.3c-1.1,1.1-1.1,2.7,0,3.8c1.1,0.9,2.9,0.9,4.2,0l0,0c1.1-1.1,0.9-2.7,0-3.8
		C828.6,101.4,826.8,101.4,825.4,102.3z"/>
	<path class="st0" d="M857.8,118.1c-0.7-2-2-3.8-3.6-4.9c-1.8-1.3-4-2-6.3-1.8c-2.2,0-4.2,0.4-6,1.6c-1.8,1.1-3.3,2.7-4.2,4.5
		c-1.1,2.2-1.6,4.5-1.6,6.9c0,2.5,0.4,4.7,1.6,6.9c0.9,1.8,2.5,3.4,4.2,4.5c1.8,1.1,4,1.6,6,1.6c2.2,0,4.5-0.7,6.3-1.8
		c1.8-1.1,2.9-2.9,3.6-4.9v6.5h4.2v-25.5h-4.2V118.1z M856.7,129.5c-0.7,1.3-1.8,2.5-3.1,3.4c-1.3,0.9-2.9,1.1-4.5,1.1
		c-2.5,0-4.7-0.9-6.3-2.5c-3.1-4-3.1-9.6,0-13.6c1.6-1.8,4-2.7,6.3-2.5c1.6,0,3.1,0.4,4.5,1.1c1.3,0.9,2.5,2,3.1,3.3
		c0.9,1.6,1.1,3.1,1.1,4.9C857.8,126.2,857.6,128,856.7,129.5z"/>
	<rect x="869.9" y="102.7" class="st0" width="4.2" height="34.4"/>
	<path class="st0" d="M881.7,102.3L881.7,102.3c-1.1,1.1-1.1,2.7,0,3.8c1.1,0.9,2.9,0.9,4.2,0l0,0c1.1-1.1,1.1-2.7,0-3.8
		C884.6,101.4,883.1,101.4,881.7,102.3z"/>
	<rect x="881.7" y="111.7" class="st0" width="4.2" height="25.7"/>
	<path class="st0" d="M907.8,124.4c-1.6-0.7-3.1-0.9-4.7-1.3s-2.7-0.7-3.6-0.9c-0.9-0.2-1.6-0.7-2.2-1.3c-0.7-0.7-0.9-1.3-0.9-2.2
		c0-1.1,0.4-2.2,1.3-2.9c1.1-0.9,2.2-1.1,3.6-1.1c1.6,0,3.1,0.4,4.2,1.6c1.1,0.9,1.8,2.2,1.8,3.8h4c-0.2-2.2-1.3-4.5-3.1-6
		c-2-1.6-4.5-2.5-6.9-2.2c-2.2-0.2-4.7,0.7-6.5,2c-1.6,1.3-2.5,3.1-2.5,5.1c0,1.3,0.4,2.7,1.1,3.8c0.7,0.9,1.8,1.6,2.9,2
		c1.6,0.4,2.9,0.9,4.5,1.3c1.1,0.2,2.5,0.7,3.6,0.9c0.9,0.2,1.6,0.7,2.2,1.3c0.7,0.7,0.9,1.6,0.9,2.5c0,1.1-0.4,2.2-1.1,2.9
		c-0.9,0.9-2.2,1.1-3.3,1.1c-1.8,0-3.3-0.4-4.7-1.3c-1.1-0.9-2-2.2-2-3.8h-4c0.2,2.5,1.3,4.7,3.4,6c2.2,1.6,4.7,2.2,7.4,2.2
		c2.2,0,4.5-0.7,6.3-2c1.6-1.1,2.5-3.1,2.2-5.1c0-1.3-0.4-2.9-1.1-4C910.1,125.5,909,124.8,907.8,124.4z"/>
	<path class="st0" d="M925,132.7c-0.7-0.9-1.1-2.2-0.9-3.4v-13.8h6.7v-3.8h-6.7v-6.5h-4.2v6.5h-3.8v3.6h3.8v13.8
		c-0.2,2.2,0.4,4.5,2,6.3c1.6,1.3,3.8,2,5.8,1.8h3.1v-3.8h-2.7C927.1,133.8,925.9,133.3,925,132.7z"/>
	<path class="st0" d="M951.2,124.4c-1.6-0.7-3.1-0.9-4.7-1.3s-2.7-0.7-3.6-0.9c-0.9-0.2-1.6-0.7-2.2-1.3c-0.7-0.7-0.9-1.3-0.9-2.2
		c0-1.1,0.4-2.2,1.3-2.9c1.1-0.9,2.2-1.1,3.6-1.1c1.6,0,3.1,0.4,4.2,1.6c1.1,0.9,1.8,2.2,1.8,3.8h4c-0.2-2.2-1.3-4.5-3.1-6
		c-2-1.6-4.5-2.5-6.9-2.2c-2.2-0.2-4.7,0.7-6.5,2c-1.6,1.3-2.5,3.1-2.5,5.1c0,1.3,0.4,2.7,1.1,3.8c0.7,0.9,1.8,1.6,2.9,2
		c1.6,0.4,2.9,0.9,4.5,1.3c1.1,0.2,2.5,0.7,3.6,0.9c0.9,0.2,1.6,0.7,2.2,1.3c0.7,0.7,0.9,1.6,0.9,2.5c0,1.1-0.4,2.2-1.1,2.9
		c-0.9,0.9-2.2,1.1-3.3,1.1c-1.8,0-3.4-0.4-4.7-1.3c-1.1-0.9-2-2.2-2-3.8H936c0.2,2.5,1.6,4.7,3.4,6c2.2,1.6,4.7,2.2,7.4,2.2
		c2.2,0,4.5-0.7,6.3-2c1.6-1.1,2.5-3.1,2.2-5.1c0-1.3-0.4-2.9-1.1-4C953.4,125.5,952.3,124.8,951.2,124.4z"/>
	<rect x="960.1" y="132.2" class="st0" width="5.1" height="4.9"/>
	<polygon class="st0" points="492.7,68.6 465.4,68.6 465.4,48.2 489.8,48.2 489.8,40 465.4,40 465.4,19.9 492.7,19.9 492.7,11.4 
		454.9,11.4 454.9,77.3 492.7,77.3 	"/>
	<path class="st0" d="M576.9,48.5v28.8h10.7V47.3c0.4-6-1.6-12.1-5.6-16.5c-3.8-4-9.2-6-14.7-5.8c-4,0-7.8,1.1-11.2,3.3
		c-3.4,2.2-5.8,5.4-7.1,9.2c-1.3-3.8-3.6-6.9-6.9-9.2c-3.4-2.2-7.1-3.3-11.2-3.1c-3.8,0-7.6,0.9-10.7,2.9c-3.1,2-5.4,5.1-6.5,8.7
		V26.1h-10.7v51.6h10.7V50.2c-0.2-4.2,1.1-8.5,3.6-11.6c2.7-2.7,6.3-4.2,10-4c3.6-0.2,6.9,1.1,9.2,3.8c2.5,2.9,3.6,6.7,3.3,10.5
		v28.8h10.7V50.2c-0.2-4.2,1.1-8.5,3.6-11.6c2.7-2.7,6.3-4.2,10.1-4c3.6-0.2,6.9,1.1,9.2,3.8C575.8,40.9,577.1,44.7,576.9,48.5z"/>
	<path class="st0" d="M649.7,65.7c4-8.9,4-19.2,0-28.1c-1.8-3.8-4.7-6.9-8.3-9.2s-7.8-3.3-12.1-3.1c-4.2-0.2-8.5,1.1-12.1,3.3
		c-3.3,2.2-5.6,5.4-6.9,9.2V25.7h-10.7v68.1h10.7V65.2c1.3,3.8,3.6,6.9,6.9,9.2c3.6,2.5,7.8,3.6,12.1,3.3c4.2,0,8.5-1.1,12.1-3.1
		C645,72.6,647.9,69.5,649.7,65.7z M626.2,68.6c-2.9,0-5.6-0.7-8-2c-2.5-1.3-4.2-3.6-5.6-5.8c-2.7-5.6-2.7-12.3,0-17.9
		c1.3-2.5,3.1-4.5,5.6-6c2.5-1.3,5.1-2.2,8-2c4.2-0.2,8.5,1.6,11.4,4.7c5.8,7.4,5.8,17.6,0,24.8C634.5,67,630.5,68.8,626.2,68.6z"/>
	<path class="st0" d="M709.3,37.5c-2.2-4-5.4-7.1-9.4-9.2c-8.5-4.2-18.5-4.2-26.8,0c-4,2-7.1,5.4-9.4,9.2c-4.5,8.7-4.5,19.2,0,28.1
		c2.2,4,5.4,7.1,9.4,9.2c8.5,4.2,18.5,4.2,26.8,0c4-2,7.1-5.4,9.4-9.2C713.8,56.7,713.8,46.2,709.3,37.5z M699.7,61
		c-1.3,2.5-3.1,4.5-5.6,5.8c-4.7,2.5-10.5,2.5-15.2,0c-2.5-1.3-4.2-3.4-5.6-5.8c-2.9-6-2.9-13,0-19c1.1-2.5,3.1-4.5,5.6-5.8
		c4.7-2.5,10.5-2.5,15.2,0c2.5,1.3,4.2,3.3,5.6,5.8C702.4,48,702.4,54.9,699.7,61z"/>
	<polygon class="st0" points="756.2,37.5 768.9,77.3 780.8,77.3 795.1,25.9 785,25.9 775.2,67.4 762,25.9 750.8,25.9 738.1,67.4 
		728.3,25.9 717.3,25.9 731.6,77.3 743.5,77.3 	"/>
	<path class="st0" d="M812,74.8c4,2.2,8.7,3.3,13.2,3.1c4,0,8-0.7,11.6-2.5c6.7-2.9,11.4-8.9,12.7-16.3h-11.4
		c-0.4,2.9-2.2,5.6-4.5,7.1c-2.7,1.8-5.8,2.9-8.9,2.7c-3.8,0.2-7.4-1.3-10.3-3.8c-2.9-3.1-4.5-7.4-4.5-11.8h39.5l0,0
		c0.9-5.8,0-11.6-2.7-16.7c-2-3.6-5.1-6.7-8.7-8.7c-8.3-4.2-18.1-4.2-26.4,0c-3.8,2-6.9,5.4-8.9,9.2c-4.5,8.9-4.5,19.2,0,28.1
		C805.1,69.5,808.2,72.6,812,74.8z M814.7,37.5c2.9-2.7,6.7-4,10.5-3.8c2.5,0,4.9,0.4,7.1,1.6c2.2,1.1,4,2.9,5.1,5.1l0,0
		c1.3,2.7,2,5.6,1.8,8.5H810C810.3,44.7,811.8,40.4,814.7,37.5z"/>
	<path class="st0" d="M871.2,36v-10h-10.7v51.6h10.7V51.4c-0.4-4.2,1.1-8.5,4.2-11.4c3.3-2.5,7.1-3.6,11.2-3.3h3.1V25
		c-4,0-7.8,0.9-11.2,2.9C875.5,29.9,872.8,32.6,871.2,36z"/>
	<rect x="897.8" y="25.9" class="st0" width="10.7" height="51.6"/>
	<path class="st0" d="M903.2,17c1.8,0,3.6-0.4,4.9-1.8c1.3-1.1,2-2.7,2-4.5s-0.7-3.3-2-4.5c-1.3-1.1-3.1-1.8-4.9-1.8
		c-1.8,0-3.6,0.7-4.9,1.8c-1.1,1.1-2,2.9-1.8,4.5c0,1.8,0.7,3.3,1.8,4.5C899.6,16.3,901.4,17,903.2,17z"/>
	<path class="st0" d="M957.4,55.2c-1.6-2-3.8-3.6-6.3-4.5c-3.1-1.1-6.3-2-9.4-2.7c-2.2-0.4-4.5-1.1-6.7-1.8c-1.6-0.4-2.9-1.3-4-2.5
		c-1.1-1.1-1.6-2.5-1.6-4c0-2,0.7-3.8,2.2-5.1c1.8-1.3,4-2,6.3-2c2.9-0.2,5.6,0.9,7.8,2.5c2,1.8,3.3,4.2,3.6,6.7h10
		c-0.7-4.9-3.1-9.2-6.7-12.3c-4-3.1-9.2-4.9-14.5-4.7c-4.9-0.2-9.6,1.1-13.6,4c-3.1,2.5-5.1,6.5-4.9,10.7c-0.2,2.9,0.7,5.8,2.5,8
		c1.6,2,3.6,3.3,6,4.2c2.9,1.1,6,2,9.2,2.7c2.2,0.4,4.7,1.1,6.9,1.8c1.6,0.4,2.9,1.3,4.2,2.5c1.1,1.1,1.8,2.7,1.8,4.2
		c0,2-0.7,3.8-2.2,5.1c-1.8,1.3-3.8,2.2-6,2c-3.1,0.2-6.3-0.9-8.7-2.7c-2.2-1.6-3.6-4.2-3.8-6.9h-10.3c0.7,4.9,3.1,9.6,7.1,12.5
		c4.5,3.1,10,4.7,15.6,4.5c4.7,0.2,9.4-1.1,13.2-4c3.1-2.5,5.1-6.5,4.9-10.5C960.1,60.5,959.2,57.6,957.4,55.2z"/>
	<path class="st0" d="M1035.1,25c-4,0-7.8,1.1-11.2,3.3s-5.8,5.4-7.1,9.2c-1.1-3.8-3.6-6.9-6.9-9.2c-3.4-2.2-7.1-3.3-11.2-3.1
		c-3.8,0-7.6,0.9-10.7,2.9c-3.1,2-5.4,5.1-6.5,8.7V26.1h-10.7v51.6h10.7V50.2c-0.2-4.2,1.1-8.5,3.6-11.6c2.7-2.7,6.3-4.2,10.1-4
		c3.6-0.2,6.9,1.1,9.2,3.8c2.5,2.9,3.6,6.7,3.3,10.5v28.8h10.7V50.2c-0.2-4.2,1.1-8.5,3.8-11.6c2.7-2.7,6.3-4.2,10.1-4
		c3.6-0.2,6.9,1.1,9.2,3.8c2.5,2.9,3.6,6.7,3.3,10.5v28.8h10.7V47.8c0.4-6-1.6-12.1-5.4-16.5C1045.9,26.8,1040.5,24.8,1035.1,25z"/>
	<path class="st0" d="M1114,37.5c-2.2-4-5.4-7.1-9.4-9.2c-8.5-4.2-18.5-4.2-26.8,0c-4,2-7.1,5.4-9.4,9.2c-4.5,8.7-4.5,19.2,0,28.1
		c2.2,4,5.4,7.1,9.4,9.2c8.5,4.2,18.5,4.2,26.8,0c4-2,7.1-5.4,9.4-9.2C1118.4,56.7,1118.4,46.2,1114,37.5z M1104.4,61
		c-1.3,2.5-3.1,4.5-5.6,5.8c-4.7,2.5-10.5,2.5-15.2,0c-2.5-1.3-4.2-3.4-5.6-5.8c-2.9-6-2.9-13,0-19c1.1-2.5,3.1-4.5,5.6-5.8
		c4.7-2.5,10.5-2.5,15.2,0c2.5,1.3,4.2,3.3,5.6,5.8C1107.1,48,1107.1,54.9,1104.4,61z"/>
	<rect x="413.8" class="st0" width="4.2" height="150.7"/>
</g>
</svg>
