<svg xmlns="http://www.w3.org/2000/svg" width="18.304" height="13.942" viewBox="0 0 18.304 13.942">
    <defs>
        <style>.a{fill:#bbb;}</style>
    </defs>
    <g transform="translate(0 -61)">
        <g transform="translate(0 61)">
            <path class="a"
                d="M16.695,61H1.609A1.611,1.611,0,0,0,0,62.609V73.334a1.611,1.611,0,0,0,1.609,1.609H16.695A1.611,1.611,0,0,0,18.3,73.334V62.609A1.611,1.611,0,0,0,16.695,61Zm-.222,1.072L9.186,69.359l-7.35-7.287ZM1.072,73.111V62.826l5.165,5.121Zm.758.758L7,68.7,8.81,70.5a.536.536,0,0,0,.757,0l1.766-1.766,5.14,5.14Zm15.4-.758-5.14-5.14,5.14-5.14Z"
                transform="translate(0 -61)" />
        </g>
    </g>
</svg>