<svg xmlns="http://www.w3.org/2000/svg" width="23" height="23" viewBox="0 0 23 23"><defs><style>.a{fill:#aaa;}</style></defs><path class="a" d="M19.631,5.795H19V3.369A3.373,3.373,0,0,0,15.633,0H7.367A3.373,3.373,0,0,0,4,3.369V5.795H3.369A3.373,3.373,0,0,0,0,9.164v5.391a3.373,3.373,0,0,0,3.369,3.369H4v3.055A2.024,2.024,0,0,0,6.02,23H16.98A2.024,2.024,0,0,0,19,20.979V17.924h.629A3.373,3.373,0,0,0,23,14.555V9.164A3.373,3.373,0,0,0,19.631,5.795ZM5.346,3.369A2.024,2.024,0,0,1,7.367,1.348h8.266a2.024,2.024,0,0,1,2.021,2.021V5.795H5.346ZM17.654,20.979a.675.675,0,0,1-.674.674H6.02a.675.675,0,0,1-.674-.674V14.33H17.654Zm4-6.424a2.024,2.024,0,0,1-2.021,2.021H19V14.33h.4a.674.674,0,0,0,0-1.348H3.594a.674.674,0,0,0,0,1.348H4v2.246H3.369a2.024,2.024,0,0,1-2.021-2.021V9.164A2.024,2.024,0,0,1,3.369,7.143H19.631a2.024,2.024,0,0,1,2.021,2.021Z"/><path class="a" d="M205.988,353h-4.2a.788.788,0,1,0,0,1.575h4.2a.788.788,0,1,0,0-1.575Z" transform="translate(-192.388 -337.309)"/><path class="a" d="M205.988,417h-4.2a.788.788,0,1,0,0,1.575h4.2a.788.788,0,1,0,0-1.575Z" transform="translate(-192.388 -398.988)"/><path class="a" d="M68.308,193h-2.52a.788.788,0,1,0,0,1.575h2.52a.788.788,0,1,0,0-1.575Z" transform="translate(-61.587 -184.421)"/></svg>