<svg xmlns="http://www.w3.org/2000/svg" width="16.423" height="16.311" viewBox="0 0 16.423 16.311"><defs><style>.a{fill:#949494;stroke:#a3aeae;stroke-width:0.1px;}</style></defs><g transform="translate(0.05 -0.444)"><g transform="translate(0 0.511)"><path class="a" d="M9.607.648a1.409,1.409,0,0,0-1.513.2l-4,3.334H1.422A1.423,1.423,0,0,0,0,5.6v6a1.423,1.423,0,0,0,1.422,1.422H4.094l4,3.334a1.422,1.422,0,0,0,2.332-1.092V1.935A1.409,1.409,0,0,0,9.607.648ZM3.791,12.081H1.422a.48.48,0,0,1-.474-.48v-6a.474.474,0,0,1,.474-.474h2.37v6.957Zm5.687,3.183a.474.474,0,0,1-.777.364l-3.962-3.3V4.872L8.7,1.571a.474.474,0,0,1,.777.364V15.264Z" transform="translate(0 -0.511)"/></g><g transform="translate(11.019 6.621)"><path class="a" d="M348.938,193.724a.474.474,0,1,0-.788.526,2.174,2.174,0,0,1,0,2.42.474.474,0,1,0,.788.526A3.119,3.119,0,0,0,348.938,193.724Z" transform="translate(-348.069 -193.513)"/></g><g transform="translate(13.962 4.199)"><path class="a" d="M442.108,117.545l-.212-.319a.474.474,0,1,0-.789.525l.213.319a5.955,5.955,0,0,1,0,6.626l-.212.318a.474.474,0,1,0,.789.526l.212-.318A6.9,6.9,0,0,0,442.108,117.545Z" transform="translate(-441.028 -117.015)"/></g><g transform="translate(12.385 5.251)"><path class="a" d="M392.273,150.744l-.213-.319a.474.474,0,0,0-.789.526l.213.319a4.067,4.067,0,0,1,0,4.523l-.213.319a.474.474,0,1,0,.789.526l.213-.319A5.011,5.011,0,0,0,392.273,150.744Z" transform="translate(-391.192 -150.214)"/></g></g></svg>