<svg xmlns="http://www.w3.org/2000/svg" width="19.414" height="20" viewBox="0 0 19.414 20">
  <path id="Path_3513" data-name="Path 3513" d="M4.773,960.173a6.032,6.032,0,0,0,2.415-4.793A6.161,6.161,0,0,0,.952,949.31a6.161,6.161,0,0,0-6.236,6.069,6.033,6.033,0,0,0,2.415,4.793,9.666,9.666,0,0,0-5.886,9.008v.129H-6.7v-.129a7.508,7.508,0,0,1,7.167-7.75,6.346,6.346,0,0,0,.942,0,7.51,7.51,0,0,1,7.185,7.75v.129h2.06v-.129A9.665,9.665,0,0,0,4.773,960.173ZM.952,951.315a4.126,4.126,0,0,1,4.176,4.064,4.09,4.09,0,0,1-3.739,4.044c-.289-.012-.6-.012-.855,0a4.093,4.093,0,0,1-3.758-4.044A4.126,4.126,0,0,1,.952,951.315Z" transform="translate(8.755 -949.31)" fill="#404040"/>
</svg>
