<svg xmlns="http://www.w3.org/2000/svg" width="25.53" height="16.272" viewBox="0 0 25.53 16.272"><defs><style>.a{fill:#d5d5d5;}</style></defs><g transform="translate(0 -92.835)"><g transform="translate(0 92.835)"><g transform="translate(0 0)"><path class="a" d="M25.368,100.474c-.228-.312-5.662-7.639-12.6-7.639S.39,100.162.162,100.474a.842.842,0,0,0,0,.993c.228.312,5.662,7.639,12.6,7.639s12.375-7.328,12.6-7.639A.841.841,0,0,0,25.368,100.474Zm-12.6,6.949c-5.113,0-9.54-4.863-10.851-6.453,1.309-1.591,5.728-6.452,10.851-6.452s9.54,4.863,10.851,6.453C22.307,102.563,17.888,107.424,12.765,107.424Z" transform="translate(0 -92.835)"/></g></g><g transform="translate(7.715 95.921)"><g transform="translate(0 0)"><path class="a" d="M159.772,154.725a5.05,5.05,0,1,0,5.05,5.05A5.056,5.056,0,0,0,159.772,154.725Zm0,8.417a3.367,3.367,0,1,1,3.367-3.367A3.37,3.37,0,0,1,159.772,163.142Z" transform="translate(-154.722 -154.725)"/></g></g></g></svg>