<svg xmlns="http://www.w3.org/2000/svg" width="37.468" height="11.534" viewBox="0 0 37.468 11.534"><g transform="translate(0 0)"><g transform="translate(13.098 0.192)"><path d="M18.626,16.8l-1.9,11.175h3.045L21.673,16.8Z" transform="translate(-16.722 -16.799)"/></g><g transform="translate(3.025 0.202)"><path d="M11.382,16.814,8.4,24.435l-.318-1.151a11.956,11.956,0,0,0-4.219-4.632l2.727,9.319,3.222-.005,4.8-11.153Z" transform="translate(-3.862 -16.812)"/></g><g transform="translate(0 0.096)"><g transform="translate(0 0)"><path d="M6.088,17.585a1.225,1.225,0,0,0-1.327-.908H.039L0,16.9c3.674.891,6.106,3.039,7.115,5.622Z" transform="translate(0 -16.677)"/></g></g><g transform="translate(18.05 0)"><path d="M29.215,18.888a5.622,5.622,0,0,1,2.279.428l.275.129.412-2.422a7.861,7.861,0,0,0-2.728-.469c-3.009,0-5.131,1.516-5.147,3.688-.02,1.6,1.511,2.5,2.667,3.036,1.187.548,1.585.9,1.579,1.386-.009.748-.946,1.091-1.821,1.091a6.393,6.393,0,0,1-2.868-.585l-.392-.179-.428,2.5a9.645,9.645,0,0,0,3.393.6c3.2,0,5.282-1.5,5.3-3.819.013-1.27-.8-2.239-2.559-3.034-1.065-.519-1.717-.863-1.711-1.386C27.47,19.385,28.023,18.888,29.215,18.888Z" transform="translate(-23.043 -16.554)"/></g><g transform="translate(26.533 0.204)"><g transform="translate(0 0)"><path d="M42.345,16.815H39.992a1.515,1.515,0,0,0-1.6.927L33.874,27.983h3.2s.522-1.377.64-1.679l3.9,0c.091.39.371,1.674.371,1.674h2.825Zm-3.756,7.2c.251-.642,1.213-3.123,1.213-3.123-.016.031.248-.646.406-1.067l.205.963.706,3.226Z" transform="translate(-33.874 -16.815)"/></g></g></g></svg>